<svg width="125" height="36" viewBox="0 0 125 36" fill="none" xmlns="http://www.w3.org/2000/svg">
<path d="M14.5407 34.7363C11.6382 34.7363 9.11382 34.2119 6.96748 33.1631C4.82114 32.0899 3.1748 30.5777 2.02846 28.6265C0.882115 26.6753 0.308945 24.407 0.308945 21.8216C0.308945 18.2363 0.979676 15.0533 2.32114 12.2728C3.68699 9.49236 5.52846 7.34601 7.84553 5.83382C10.1626 4.29723 12.7358 3.52894 15.565 3.52894C18.1992 3.52894 20.1992 4.21187 21.565 5.57772C22.9309 6.91919 23.6138 8.69967 23.6138 10.9192C23.6138 12.407 23.3455 13.6021 22.8089 14.5046C22.2967 15.407 21.5528 15.8582 20.5772 15.8582C19.8943 15.8582 19.3577 15.6997 18.9675 15.3826C18.5772 15.0655 18.3821 14.6021 18.3821 13.9924C18.3821 13.7728 18.4309 13.3704 18.5285 12.785C18.6748 12.0533 18.748 11.468 18.748 11.0289C18.748 8.80943 17.565 7.69967 15.1992 7.69967C13.5894 7.69967 12.0528 8.22406 10.5894 9.27284C9.12602 10.3216 7.94309 11.8704 7.04065 13.9192C6.13821 15.9436 5.68699 18.3582 5.68699 21.1631C5.68699 24.0899 6.50407 26.3582 8.13821 27.968C9.77236 29.5533 12.187 30.346 15.3821 30.346C16.9675 30.346 18.565 30.1509 20.1748 29.7606C21.8089 29.346 23.6138 28.7241 25.5894 27.8948C25.9553 27.7485 26.2602 27.6753 26.5041 27.6753C26.8943 27.6753 27.187 27.8216 27.3821 28.1143C27.5772 28.407 27.6748 28.785 27.6748 29.2485C27.6748 30.7363 26.8699 31.8338 25.2602 32.5411C23.5285 33.2972 21.7236 33.8582 19.8455 34.2241C17.9919 34.5655 16.2236 34.7363 14.5407 34.7363ZM43.1058 23.3216C43.4229 23.3216 43.6668 23.4802 43.8375 23.7972C44.0082 24.1143 44.0936 24.5167 44.0936 25.0046C44.0936 26.1753 43.7399 26.8704 43.0326 27.0899C41.5692 27.6021 39.9594 27.8948 38.2034 27.968C37.7399 30.0167 36.8253 31.6631 35.4595 32.907C34.0936 34.1265 32.5448 34.7363 30.8131 34.7363C29.3497 34.7363 28.0936 34.3826 27.0448 33.6753C26.0204 32.968 25.2399 32.0289 24.7034 30.8582C24.1668 29.6875 23.8985 28.4192 23.8985 27.0533C23.8985 25.1997 24.2521 23.5533 24.9595 22.1143C25.6668 20.6509 26.6424 19.5167 27.8863 18.7119C29.1302 17.8826 30.5082 17.468 32.0204 17.468C33.8741 17.468 35.3619 18.1143 36.4838 19.407C37.6302 20.6753 38.3009 22.2485 38.496 24.1265C39.6424 24.0533 41.0082 23.8094 42.5936 23.3948C42.7887 23.346 42.9594 23.3216 43.1058 23.3216ZM31.1058 30.8582C31.8863 30.8582 32.557 30.5411 33.118 29.907C33.7034 29.2728 34.0936 28.3582 34.2887 27.1631C33.5326 26.6509 32.9473 25.9802 32.5326 25.1509C32.1424 24.3216 31.9473 23.4436 31.9473 22.5167C31.9473 22.1265 31.9838 21.7363 32.057 21.346H31.8741C30.8985 21.346 30.0814 21.8216 29.4229 22.7728C28.7887 23.6997 28.4716 25.0167 28.4716 26.7241C28.4716 28.0655 28.7277 29.0899 29.2399 29.7972C29.7765 30.5046 30.3985 30.8582 31.1058 30.8582ZM45.4536 34.7363C43.9414 34.7363 42.734 34.1875 41.8316 33.0899C40.9292 31.9924 40.4779 30.5533 40.4779 28.7728C40.4779 26.8216 40.9292 24.9802 41.8316 23.2485C42.734 21.4924 43.9292 20.0899 45.417 19.0411C46.9292 17.968 48.5267 17.4314 50.2097 17.4314C50.7462 17.4314 51.0999 17.5411 51.2706 17.7606C51.4658 17.9558 51.6243 18.3216 51.7462 18.8582C52.2584 18.7606 52.795 18.7119 53.356 18.7119C54.5511 18.7119 55.1487 19.1387 55.1487 19.9924C55.1487 20.5046 54.9658 21.7241 54.5999 23.6509C54.0389 26.4558 53.7584 28.407 53.7584 29.5046C53.7584 29.8704 53.8438 30.1631 54.0145 30.3826C54.2097 30.6021 54.4536 30.7119 54.7462 30.7119C55.2097 30.7119 55.7706 30.4192 56.4292 29.8338C57.0877 29.2241 57.9779 28.2485 59.0999 26.907C59.3926 26.5655 59.7219 26.3948 60.0877 26.3948C60.4048 26.3948 60.6487 26.5411 60.8194 26.8338C61.0145 27.1265 61.1121 27.5289 61.1121 28.0411C61.1121 29.0167 60.8804 29.7728 60.417 30.3094C59.417 31.5533 58.356 32.6021 57.234 33.4558C56.1121 34.3094 55.0267 34.7363 53.9779 34.7363C53.1731 34.7363 52.4292 34.468 51.7462 33.9314C51.0877 33.3704 50.5877 32.6143 50.2462 31.6631C48.9779 33.7119 47.3804 34.7363 45.4536 34.7363ZM46.7706 31.0411C47.3072 31.0411 47.8194 30.7241 48.3072 30.0899C48.795 29.4558 49.1487 28.6143 49.3682 27.5655L50.7219 20.8338C49.6975 20.8582 48.7462 21.2485 47.8682 22.0046C47.0145 22.7363 46.3316 23.7119 45.8194 24.9314C45.3072 26.1509 45.0511 27.4436 45.0511 28.8094C45.0511 29.5655 45.1975 30.1265 45.4901 30.4924C45.8072 30.8582 46.234 31.0411 46.7706 31.0411ZM65.1265 34.7363C62.7363 34.7363 60.8704 34.0655 59.529 32.7241C58.2119 31.3582 57.5534 29.5655 57.5534 27.346C57.5534 25.3704 57.9436 23.6387 58.7241 22.1509C59.5046 20.6631 60.5168 19.5167 61.7607 18.7119C63.0046 17.907 64.3094 17.5046 65.6753 17.5046C67.0168 17.5046 68.0534 17.907 68.7851 18.7119C69.5412 19.4924 69.9192 20.5046 69.9192 21.7485C69.9192 22.7728 69.6875 23.6387 69.2241 24.346C68.7851 25.0533 68.1997 25.407 67.468 25.407C67.0046 25.407 66.6265 25.2972 66.3338 25.0777C66.0655 24.8582 65.9314 24.5533 65.9314 24.1631C65.9314 23.9924 65.9558 23.7972 66.0046 23.5777C66.0534 23.3582 66.0899 23.1997 66.1143 23.1021C66.2363 22.7363 66.2973 22.3948 66.2973 22.0777C66.2973 21.7606 66.2119 21.5167 66.0412 21.346C65.8948 21.1753 65.6753 21.0899 65.3826 21.0899C64.8216 21.0899 64.2973 21.346 63.8095 21.8582C63.3216 22.346 62.9314 23.0167 62.6387 23.8704C62.346 24.7241 62.1997 25.6631 62.1997 26.6875C62.1997 29.5167 63.4314 30.9314 65.8948 30.9314C66.8948 30.9314 67.968 30.6021 69.1143 29.9436C70.2851 29.2606 71.4314 28.2485 72.5534 26.907C72.846 26.5655 73.1753 26.3948 73.5412 26.3948C73.8582 26.3948 74.1021 26.5411 74.2729 26.8338C74.468 27.1265 74.5655 27.5289 74.5655 28.0411C74.5655 28.968 74.3338 29.7241 73.8704 30.3094C72.7241 31.7241 71.346 32.8216 69.7363 33.6021C68.1509 34.3582 66.6143 34.7363 65.1265 34.7363ZM91.913 26.3948C92.2301 26.3948 92.474 26.5411 92.6447 26.8338C92.8398 27.1265 92.9374 27.5289 92.9374 28.0411C92.9374 29.0167 92.7057 29.7728 92.2423 30.3094C91.1203 31.6021 89.9618 32.6631 88.7667 33.4924C87.5959 34.3216 86.2545 34.7363 84.7423 34.7363C83.4984 34.7363 82.5593 34.3826 81.9252 33.6753C81.2911 32.9436 80.974 31.8948 80.974 30.5289C80.974 29.846 81.1447 28.6265 81.4862 26.8704C81.8033 25.3338 81.9618 24.2728 81.9618 23.6875C81.9618 23.2972 81.8276 23.1021 81.5593 23.1021C81.2423 23.1021 80.7911 23.5167 80.2057 24.346C79.6203 25.1509 79.035 26.2241 78.4496 27.5655C77.8642 28.907 77.3886 30.3216 77.0228 31.8094C76.5593 33.7606 75.413 34.7363 73.5837 34.7363C72.852 34.7363 72.3642 34.4802 72.1203 33.968C71.9008 33.4314 71.7911 32.4802 71.7911 31.1143C71.7911 30.3338 71.8033 29.7119 71.8276 29.2485L71.8642 26.3216C71.8642 22.5655 72.2423 18.6509 72.9984 14.5777C73.7789 10.5046 74.913 7.08992 76.4008 4.33382C77.913 1.55333 79.7179 0.163086 81.8154 0.163086C82.9374 0.163086 83.8398 0.650891 84.5228 1.6265C85.2301 2.57772 85.5837 3.82162 85.5837 5.35821C85.5837 7.82162 84.8642 10.3826 83.4252 13.0411C81.9862 15.6753 79.6447 18.7606 76.4008 22.2972C76.3276 23.5655 76.2911 24.8704 76.2911 26.2119C77.0959 24.1387 77.9862 22.4558 78.9618 21.1631C79.9618 19.846 80.9374 18.907 81.8886 18.346C82.8642 17.785 83.7545 17.5046 84.5593 17.5046C86.1447 17.5046 86.9374 18.2972 86.9374 19.8826C86.9374 20.8338 86.6691 22.5533 86.1325 25.0411C85.6691 27.1631 85.4374 28.5655 85.4374 29.2485C85.4374 30.2241 85.7911 30.7119 86.4984 30.7119C86.9862 30.7119 87.5593 30.4192 88.2179 29.8338C88.9008 29.2241 89.8032 28.2485 90.9252 26.907C91.2179 26.5655 91.5471 26.3948 91.913 26.3948ZM81.0471 3.78504C80.6081 3.78504 80.1203 4.41919 79.5837 5.68748C79.0472 6.93138 78.5228 8.6265 78.0106 10.7728C77.5228 12.8948 77.1203 15.2119 76.8033 17.7241C78.3154 15.9436 79.5593 14.0046 80.535 11.907C81.535 9.80943 82.035 7.90699 82.035 6.19967C82.035 5.41919 81.9496 4.82162 81.7789 4.40699C81.6081 3.99236 81.3642 3.78504 81.0471 3.78504ZM106.29 26.3948C106.607 26.3948 106.851 26.5411 107.021 26.8338C107.216 27.1265 107.314 27.5289 107.314 28.0411C107.314 29.0167 107.082 29.7728 106.619 30.3094C105.716 31.407 104.436 32.4192 102.777 33.346C101.143 34.2728 99.3869 34.7363 97.5088 34.7363C94.9479 34.7363 92.9601 34.0411 91.5454 32.6509C90.1308 31.2606 89.4235 29.3582 89.4235 26.9436C89.4235 25.2606 89.7771 23.6997 90.4845 22.2606C91.1918 20.7972 92.1674 19.6387 93.4113 18.785C94.6796 17.9314 96.1064 17.5046 97.6918 17.5046C99.1064 17.5046 100.241 17.9314 101.094 18.785C101.948 19.6143 102.375 20.7485 102.375 22.1875C102.375 23.8704 101.765 25.3216 100.545 26.5411C99.3503 27.7363 97.3137 28.6875 94.4357 29.3948C95.0454 30.5167 96.204 31.0777 97.9113 31.0777C99.0088 31.0777 100.253 30.6997 101.643 29.9436C103.058 29.1631 104.277 28.1509 105.302 26.907C105.595 26.5655 105.924 26.3948 106.29 26.3948ZM97.0698 21.0899C96.1674 21.0899 95.3991 21.6143 94.7649 22.6631C94.1552 23.7119 93.8503 24.9802 93.8503 26.468V26.5411C95.2893 26.1997 96.4235 25.6875 97.2527 25.0046C98.082 24.3216 98.4966 23.5289 98.4966 22.6265C98.4966 22.1631 98.3625 21.7972 98.0942 21.5289C97.8503 21.2363 97.5088 21.0899 97.0698 21.0899ZM117.474 26.3948C117.742 28.3948 118.132 30.3704 118.644 32.3216C118.742 32.6387 118.791 32.968 118.791 33.3094C118.791 34.407 118.12 34.9558 116.778 34.9558C116.022 34.9558 115.437 34.7485 115.022 34.3338C114.632 33.9192 114.266 33.1387 113.925 31.9924L113.888 31.846C112.961 32.9924 112.12 33.7606 111.364 34.1509C110.632 34.5411 109.778 34.7363 108.803 34.7363C107.315 34.7363 106.083 34.1875 105.108 33.0899C104.157 31.968 103.681 30.5167 103.681 28.7363C103.681 26.785 104.096 24.9802 104.925 23.3216C105.754 21.6631 106.888 20.3094 108.327 19.2606C109.766 18.1875 111.376 17.5411 113.157 17.3216C113.62 12.7119 114.498 8.69967 115.791 5.28504C117.108 1.8704 118.852 0.163086 121.022 0.163086C122.071 0.163086 122.937 0.638696 123.62 1.58992C124.327 2.54114 124.681 3.98016 124.681 5.90699C124.681 8.58992 124.022 11.7241 122.705 15.3094C121.388 18.8948 119.644 22.5899 117.474 26.3948ZM120.62 3.74845C119.913 3.74845 119.242 5.55333 118.608 9.16309C117.998 12.7728 117.583 16.6997 117.364 20.9436C120.071 15.0899 121.425 10.3338 121.425 6.67528C121.425 5.74845 121.339 5.02894 121.169 4.51675C121.022 4.00455 120.839 3.74845 120.62 3.74845ZM110.083 31.0411C110.571 31.0411 111.035 30.8582 111.474 30.4924C111.937 30.1265 112.522 29.4192 113.23 28.3704C112.986 26.5899 112.864 24.7485 112.864 22.846C112.864 22.0899 112.876 21.5046 112.9 21.0899C111.559 21.4802 110.449 22.3704 109.571 23.7606C108.693 25.1509 108.254 26.6875 108.254 28.3704C108.254 30.1509 108.864 31.0411 110.083 31.0411Z" fill="#ED1B24"/>
</svg>
