<svg width="24" height="24" viewBox="0 0 24 24" fill="none" xmlns="http://www.w3.org/2000/svg">
<g clip-path="url(#clip0_107_3356)">
<path d="M18.3351 18.339H15.6701V14.162C15.6701 13.166 15.6501 11.884 14.2801 11.884C12.8911 11.884 12.6791 12.968 12.6791 14.089V18.339H10.0131V9.75H12.5731V10.92H12.6081C12.9661 10.246 13.8361 9.533 15.1361 9.533C17.8361 9.533 18.3361 11.311 18.3361 13.624V18.339H18.3351ZM7.00312 8.575C6.79968 8.57526 6.59818 8.53537 6.41019 8.45761C6.22219 8.37984 6.05139 8.26574 5.90758 8.12184C5.76377 7.97793 5.64977 7.80706 5.57213 7.61901C5.49449 7.43097 5.45473 7.22944 5.45512 7.026C5.45532 6.71983 5.5463 6.4206 5.71656 6.16615C5.88682 5.91169 6.12872 5.71343 6.41165 5.59645C6.69459 5.47947 7.00586 5.44902 7.3061 5.50894C7.60635 5.56886 7.88208 5.71648 8.09843 5.93311C8.31478 6.14974 8.46204 6.42566 8.52157 6.72598C8.58111 7.0263 8.55025 7.33753 8.4329 7.62032C8.31556 7.9031 8.11699 8.14474 7.86231 8.31467C7.60764 8.4846 7.30829 8.5752 7.00212 8.575H7.00312ZM8.33912 18.339H5.66612V9.75H8.34012V18.339H8.33912ZM19.6701 3H4.32912C3.59312 3 3.00012 3.58 3.00012 4.297V19.703C3.00012 20.42 3.59412 21 4.32812 21H19.6661C20.4001 21 21.0001 20.42 21.0001 19.703V4.297C21.0001 3.58 20.4001 3 19.6661 3H19.6691H19.6701Z" fill="#6A7C94"/>
</g>
<defs>
<clipPath id="clip0_107_3356">
<rect width="24" height="24" fill="white"/>
</clipPath>
</defs>
</svg>
