<?xml version="1.0" encoding="UTF-8"?>
<svg id="Layer_2" data-name="Layer 2" xmlns="http://www.w3.org/2000/svg" xmlns:xlink="http://www.w3.org/1999/xlink" viewBox="0 0 42.71 51.34">
  <defs>
    <style>
      .cls-1 {
        fill: url(#linear-gradient);
      }

      .cls-1, .cls-2, .cls-3, .cls-4, .cls-5 {
        stroke-width: 0px;
      }

      .cls-2 {
        fill: url(#linear-gradient-4);
      }

      .cls-3 {
        fill: url(#linear-gradient-2);
      }

      .cls-4 {
        fill: url(#linear-gradient-3);
      }

      .cls-5 {
        fill: #5acaf9;
      }
    </style>
    <linearGradient id="linear-gradient" x1="4.91" y1="59.59" x2="26.94" y2="6.9" gradientUnits="userSpaceOnUse">
      <stop offset="0" stop-color="#255bec"/>
      <stop offset=".19" stop-color="#324eee"/>
      <stop offset=".55" stop-color="#542cf6"/>
      <stop offset=".87" stop-color="#780aff"/>
    </linearGradient>
    <linearGradient id="linear-gradient-2" x1="-1.48" y1="34.82" x2="53.11" y2="16.32" gradientUnits="userSpaceOnUse">
      <stop offset=".11" stop-color="#00b3ff"/>
      <stop offset=".17" stop-color="#0da7ff"/>
      <stop offset=".29" stop-color="#2f89ff"/>
      <stop offset=".45" stop-color="#6659ff"/>
      <stop offset=".54" stop-color="#893bff"/>
      <stop offset=".67" stop-color="#8531ff"/>
      <stop offset=".89" stop-color="#7d19ff"/>
      <stop offset="1" stop-color="#780aff"/>
    </linearGradient>
    <linearGradient id="linear-gradient-3" x1="-1.48" y1="34.82" x2="53.11" y2="16.32" gradientUnits="userSpaceOnUse">
      <stop offset=".03" stop-color="#00b3ff"/>
      <stop offset=".11" stop-color="#0da7ff"/>
      <stop offset=".24" stop-color="#2f89ff"/>
      <stop offset=".42" stop-color="#6659ff"/>
      <stop offset=".52" stop-color="#893bff"/>
      <stop offset=".65" stop-color="#8531ff"/>
      <stop offset=".88" stop-color="#7d19ff"/>
      <stop offset="1" stop-color="#780aff"/>
    </linearGradient>
    <linearGradient id="linear-gradient-4" x1="23.03" y1="18.14" x2="26.28" y2="-6.59" xlink:href="#linear-gradient-3"/>
  </defs>
  <g id="Layer_1-2" data-name="Layer 1">
    <g>
      <path class="cls-1" d="m17.22,19.83v8.01c2.34-.44,4.63-1.06,6.59-1.61l.33-.1s.08-.02.21-.06v-8.36l-7.13,2.12Zm0,0v8.01c2.34-.44,4.63-1.06,6.59-1.61l.33-.1s.08-.02.21-.06v-8.36l-7.13,2.12Zm0,0v8.01c2.34-.44,4.63-1.06,6.59-1.61l.33-.1s.08-.02.21-.06v-8.36l-7.13,2.12Zm0,0v8.01c2.34-.44,4.63-1.06,6.59-1.61l.33-.1s.08-.02.21-.06v-8.36l-7.13,2.12Zm.33,14.97c-.21.04-.42.08-.63.11-.22.95-.6,1.69-1.21,2.31-1.13,1.14-2.9,2-5.27,2.55-2.31.55-4.74,1.01-7.25,1.37l-3.19,7.48c2.46-.26,4.86-.6,7.19-1.01,1.67-.3,3.31-.64,4.91-1.01,3.7-.87,6.64-2.38,8.72-4.48,2.75-2.79,3.36-6.2,3.49-9.01-2.58.77-4.74,1.31-6.76,1.69Zm0,0c-.21.04-.42.08-.63.11-.22.95-.6,1.69-1.21,2.31-1.13,1.14-2.9,2-5.27,2.55-2.31.55-4.74,1.01-7.25,1.37l-3.19,7.48c2.46-.26,4.86-.6,7.19-1.01,1.67-.3,3.31-.64,4.91-1.01,3.7-.87,6.64-2.38,8.72-4.48,2.75-2.79,3.36-6.2,3.49-9.01-2.58.77-4.74,1.31-6.76,1.69Zm0,0c-.21.04-.42.08-.63.11-.22.95-.6,1.69-1.21,2.31-1.13,1.14-2.9,2-5.27,2.55-2.31.55-4.74,1.01-7.25,1.37l-3.19,7.48c2.46-.26,4.86-.6,7.19-1.01,1.67-.3,3.31-.64,4.91-1.01,3.7-.87,6.64-2.38,8.72-4.48,2.75-2.79,3.36-6.2,3.49-9.01-2.58.77-4.74,1.31-6.76,1.69Zm0,0c-.21.04-.42.08-.63.11-.22.95-.6,1.69-1.21,2.31-1.13,1.14-2.9,2-5.27,2.55-2.31.55-4.74,1.01-7.25,1.37l-3.19,7.48c2.46-.26,4.86-.6,7.19-1.01,1.67-.3,3.31-.64,4.91-1.01,3.7-.87,6.64-2.38,8.72-4.48,2.75-2.79,3.36-6.2,3.49-9.01-2.58.77-4.74,1.31-6.76,1.69Z"/>
      <g>
        <path class="cls-5" d="m29.94,18v6.18c-.22.08-.45.17-.69.26-1.07.39-2.07.73-2.9,1v-6.38l3.59-1.06Z"/>
        <path class="cls-5" d="m29.94,31.23v2.38c0,3.05,0,7.66-3.53,11.23-2.08,2.1-5.01,3.61-8.72,4.48-3.8.89-7.86,1.57-12.1,2.02l.66-1.55c.43-.07.86-.14,1.29-.22,1.7-.3,3.39-.64,5.01-1.02,4.08-.96,7.34-2.65,9.69-5.03,3.41-3.44,4-7.65,4.09-11.02.73-.24,2.03-.68,3.61-1.27Z"/>
      </g>
      <path class="cls-3" d="m42.35,21.64c-1.41,2.83-7.81,5.7-12.41,7.45-2.74,1.05-4.84,1.7-4.84,1.7-.25.07-.5.15-.75.23-2.36.71-4.75,1.35-7.17,1.81-1.08.21-2.17.37-3.27.49-2.24.24-4.45.41-6.71.22-1.14-.09-3.95-.08-4.35-1.51-.45-1.61,3.81-4.13,5.09-4.88,2.41-1.43,4.6-2.11,6.17-2.57-2.43,1.16-4.15,2.44-5.28,3.4-1.48,1.27-1.53,1.64-1.46,1.85.47,1.55,6.02.6,7.13.46.91-.1,1.82-.24,2.72-.41,2.41-.44,4.78-1.07,7.13-1.73.11-.03.22-.06.33-.09,0,0,2.38-.68,5.26-1.75,3.38-1.25,7.43-3.03,9.16-4.91.36-.38,1.32-1.42,1-2-.15-.29-.58-.36-.84-.39.33-.04,2.71-.29,3.31.82.35.66-.07,1.5-.22,1.81Z"/>
      <path class="cls-4" d="m42.35,21.64c-1.41,2.83-7.81,5.7-12.41,7.45-2.74,1.05-4.84,1.7-4.84,1.7-.25.07-.5.15-.75.23-2.36.71-4.75,1.35-7.17,1.81-1.08.21-2.17.37-3.27.49-2.24.24-4.45.41-6.71.22-1.14-.09-3.95-.08-4.35-1.51-.45-1.61,3.81-4.13,5.09-4.88,2.41-1.43,4.6-2.11,6.17-2.57-2.43,1.16-4.15,2.44-5.28,3.4-1.48,1.27-1.53,1.64-1.46,1.85.47,1.55,6.02.6,7.13.46.91-.1,1.82-.24,2.72-.41,2.41-.44,4.78-1.07,7.13-1.73.11-.03.22-.06.33-.09,0,0,2.38-.68,5.26-1.75,3.38-1.25,7.43-3.03,9.16-4.91.36-.38,1.32-1.42,1-2-.15-.29-.58-.36-.84-.39.33-.04,2.71-.29,3.31.82.35.66-.07,1.5-.22,1.81Z"/>
      <path class="cls-2" d="m27.89,3.55c-.29,1.07-1.25,1.91-2.07,2.69-1.69,1.63-4.17,3.05-4.68,5.37-.47,2.14,1.61,4.07,2.15,4.55-.71-.23-2.52-.91-3.65-2.6-.71-1.06-1.21-2.37-.61-3.57.62-1.22,2-2.11,3.12-2.95,1.17-.88,2.38-1.75,3.44-2.7.52-.47,1.03-.97,1.31-1.59.48-1.08.33-2.13.17-2.75.5.75,1.21,2.1.82,3.55Zm1.93,2.56c-.87.32-1.72.73-2.51,1.18-1.27.73-2.58,1.66-3.19,2.93-.36.76-.51,1.66-.18,2.45.33.81,1.23,1.3,1.54,2.13.19.51.25,1.27-.34,2.39,1.01-.42,2.22-1.1,2.45-2.14.23-1.05-.76-1.91-1.25-2.78-.25-.44-.42-.92-.41-1.42.01-.44.15-.87.35-1.27.72-1.43,2.18-2.54,3.54-3.47Z"/>
    </g>
  </g>
</svg>