<svg width="24" height="24" viewBox="0 0 24 24" fill="none" xmlns="http://www.w3.org/2000/svg">
<g clip-path="url(#clip0_107_3353)">
<path d="M15.4021 21V14.034H17.7351L18.0841 11.326H15.4021V9.598C15.4021 8.814 15.6201 8.279 16.7441 8.279H18.1781V5.857C17.4839 5.78334 16.7862 5.74762 16.0881 5.75C14.0211 5.75 12.6061 7.012 12.6061 9.33V11.326H10.2681V14.034H12.6061V21H4.00012C3.73491 21 3.48055 20.8946 3.29302 20.7071C3.10548 20.5196 3.00012 20.2652 3.00012 20V4C3.00012 3.73478 3.10548 3.48043 3.29302 3.29289C3.48055 3.10536 3.73491 3 4.00012 3H20.0001C20.2653 3 20.5197 3.10536 20.7072 3.29289C20.8948 3.48043 21.0001 3.73478 21.0001 4V20C21.0001 20.2652 20.8948 20.5196 20.7072 20.7071C20.5197 20.8946 20.2653 21 20.0001 21H15.4021Z" fill="#6A7C94"/>
</g>
<defs>
<clipPath id="clip0_107_3353">
<rect width="24" height="24" fill="white"/>
</clipPath>
</defs>
</svg>
