<svg width="24" height="24" viewBox="0 0 24 24" fill="none" xmlns="http://www.w3.org/2000/svg">
<g clip-path="url(#clip0_107_3350)">
<path d="M22.1624 5.65593C21.399 5.99362 20.5894 6.2154 19.7604 6.31393C20.6342 5.79136 21.2881 4.96894 21.6004 3.99993C20.7804 4.48793 19.8814 4.82993 18.9444 5.01493C18.315 4.34151 17.4808 3.89489 16.5714 3.74451C15.662 3.59413 14.7284 3.74842 13.9157 4.18338C13.103 4.61834 12.4568 5.30961 12.0775 6.14972C11.6983 6.98983 11.6072 7.93171 11.8184 8.82893C10.1555 8.74558 8.52875 8.31345 7.04371 7.56059C5.55866 6.80773 4.24855 5.75097 3.19842 4.45893C2.82671 5.09738 2.63137 5.82315 2.63242 6.56193C2.63242 8.01193 3.37042 9.29293 4.49242 10.0429C3.82843 10.022 3.17905 9.84271 2.59842 9.51993V9.57193C2.59862 10.5376 2.93279 11.4735 3.54427 12.221C4.15575 12.9684 5.0069 13.4814 5.95342 13.6729C5.33703 13.84 4.69073 13.8646 4.06342 13.7449C4.33029 14.5762 4.85043 15.3031 5.55101 15.824C6.2516 16.3449 7.09755 16.6337 7.97042 16.6499C7.1029 17.3313 6.1096 17.8349 5.0473 18.1321C3.985 18.4293 2.87455 18.5142 1.77942 18.3819C3.69112 19.6114 5.91652 20.264 8.18942 20.2619C15.8824 20.2619 20.0894 13.8889 20.0894 8.36193C20.0894 8.18193 20.0844 7.99993 20.0764 7.82193C20.8953 7.23009 21.602 6.49695 22.1634 5.65693L22.1624 5.65593Z" fill="#6A7C94"/>
</g>
<defs>
<clipPath id="clip0_107_3350">
<rect width="24" height="24" fill="white"/>
</clipPath>
</defs>
</svg>
